# Blender v2.69 (sub 0) OBJ File: ''
# www.blender.org
mtllib untitled.mtl
o Cube
v 1.000000 -1.000000 -1.000000
v 1.000000 -1.000000 1.000000
v -1.000000 -1.000000 1.000000
v -1.000000 -1.000000 -1.000000
v -2.468571 1.922425 -0.327028
v 0.999999 1.000000 1.000001
v -1.000000 1.000000 1.000000
v -4.468572 1.922425 -0.327029
vt 0.666667 0.000000
vt 1.000000 0.000000
vt 1.000000 0.333333
vt 0.666667 0.333333
vt 0.000000 0.666667
vt 0.000000 0.333333
vt 0.333333 0.333334
vt 0.261905 0.733333
vt 0.568452 0.266667
vt 0.556548 0.441667
vt 0.029762 0.966667
vt 0.000000 0.000000
vt 0.333333 0.000000
vt 0.333333 0.333333
vt 0.568452 0.250000
vt 0.883929 0.808333
vt 0.666667 0.666667
vt 0.351191 0.875000
vn 0.000000 -1.000000 0.000000
vn -0.000000 0.821115 0.570762
vn 0.654772 0.534450 -0.534450
vn -0.000000 -0.000000 1.000000
vn -0.654772 -0.534450 0.534450
vn 0.000000 0.224406 -0.974496
usemtl Material.001
s off
f 1/1/1 2/2/1 3/3/1 4/4/1
f 5/5/2 8/6/2 7/7/2 6/8/2
f 1/9/3 5/10/3 6/11/3 2/1/3
f 2/6/4 6/12/4 7/13/4 3/14/4
f 3/15/5 7/3/5 8/16/5 4/17/5
f 5/10/6 1/9/6 4/17/6 8/18/6
